<svg xmlns="http://www.w3.org/2000/svg" viewBox="0 0 1263.4 1500.2"><defs><style>.cls-1,.cls-2{fill:#fff}.cls-2{font-size:476.73px;font-family:SegoePrint,Segoe Print}</style></defs><title>CV</title><g id="Capa_2" data-name="Capa 2"><path id="_Trazado_compuesto_" d="M282.7,538.1l-87-24.5A218.51,218.51,0,0,0,339.9,701.5l10.8,3.9-85.9,4.5a206.07,206.07,0,0,0,172.9,133l7.7.8a371.74,371.74,0,0,1-259.6,83.1l-28-1.9a412.63,412.63,0,0,0,229.1,84.4l6.2.3,25.3,1c8.1.3,16.2.5,24.2.5,152.5,0,302.7-55,410.1-163.7,4.4-4.5,8.7-9.2,13.2-14.8a712.16,712.16,0,0,0,142.6-397.2l41.2-35a212.07,212.07,0,0,0,33.8-36.4l22-30-42.7,16.2A108.56,108.56,0,0,1,1045,355l-49.7,8.9,17.8-13.8a199.85,199.85,0,0,0,62.3-80.9l4.9-11.6-11.3,5.6a535.46,535.46,0,0,1-55.3,23.5,549.81,549.81,0,0,1-57.6,17.2s-10-7.5-23.7-17.7A203.8,203.8,0,0,0,768,249.7l-1.4.3a124.65,124.65,0,0,0-43.8,18.4l-11.2,7.5a197.5,197.5,0,0,0-86.4,184.7l2.3,21.7-34.9-6.4A690.6,690.6,0,0,1,229.1,285l-5.5-5.5-.3.9A261.17,261.17,0,0,0,282.7,538.1Zm980.7,92.7V1153a40.33,40.33,0,0,1-40.36,40.3h-3.14a40.26,40.26,0,0,1-40.3-40.1l-.7-205.6a627.42,627.42,0,0,1-44,66.1l-.4,167.2a40.29,40.29,0,0,1-40.3,40.2h-.2a40.29,40.29,0,0,1-40.3-40.28v-.22l.3-79q-21.3,19.2-44.3,36.4l-.4,301.7a40.35,40.35,0,0,1-40.3,40.2h-.1a40.38,40.38,0,0,1-40.4-40.3v-250q-21.45,11.4-43.7,21.2v60.6a40.42,40.42,0,0,1-40.4,40.4h-4.7a40.33,40.33,0,0,1-40.3-40.36V1241.1c-14,3.8-28.2,7.2-42.6,10.1v99.5a40.33,40.33,0,0,1-40.36,40.3H714.1a40.32,40.32,0,0,1-40.3-40.3v-88.4c-13.9.9-28,1.4-42.1,1.4s-28.2-.5-42.1-1.4v197.6a40.32,40.32,0,0,1-40.3,40.3H547a40.33,40.33,0,0,1-40.4-40.26V1251.3c-14.4-2.9-28.6-6.3-42.6-10.1v68.5a40.25,40.25,0,0,1-40.2,40.3H419a40.38,40.38,0,0,1-40.4-40.3v-98.8q-22.35-9.75-43.7-21.2V1391a40.35,40.35,0,1,1-80.7.1h0V1138.5q-23-17.1-44.3-36.3v79.7a40.38,40.38,0,0,1-40.3,40.4h-.3a40.42,40.42,0,0,1-40.4-40.4V1014.5c-7.4-9.7-14.6-19.7-21.4-29.9-8.4-12.5-16.4-25.4-24-38.5v108.1a40.38,40.38,0,0,1-40.3,40.4H40.4A40.42,40.42,0,0,1,0,1054.2V631.8C0,282.9,282.9,0,631.8,0S1263.4,281.8,1263.4,630.8Z" data-name="Trazado compuesto" transform="translate(0)"/><rect width="653.97" height="614.97" x="243.71" y="202.12"/><rect width="299.99" height="655.47" x="791.18" y="202.12"/><rect width="128.99" height="103.49" x="1028.17" y="299.61"/><rect width="304.48" height="488.39" x="167.21" y="260.61"/><rect width="731.96" height="191.08" x="107.22" y="749"/><rect width="623.97" height="177.51" x="167.21" y="833.59"/></g><g id="Capa_4" data-name="Capa 4"><rect width="810.4" height="963.64" x="217.77" y="139.44" class="cls-1" rx="82.26" ry="82.26"/><rect width="697.47" height="827.96" x="272.61" y="210.62" rx="81" ry="81"/><text class="cls-2" transform="translate(272.61 762.7) scale(0.98 1)">CV</text></g></svg>