<svg id="Capa_2" data-name="Capa 2" xmlns="http://www.w3.org/2000/svg" viewBox="0 0 1263.4 1500.2"><defs><style>.cls-1{fill:#fff;}</style></defs><title>Github</title><path id="_Trazado_compuesto_" data-name="&lt;Trazado compuesto&gt;" d="M451.1,589.1l-87-24.5A218.5,218.5,0,0,0,508.3,752.5l10.8,3.9-85.9,4.5a206.06,206.06,0,0,0,172.9,133l7.7.8a371.69,371.69,0,0,1-259.6,83.1l-28-1.9a412.58,412.58,0,0,0,229.1,84.4l6.2.3,25.3,1c8.1.3,16.2.5,24.2.5,152.5,0,302.7-55,410.1-163.7,4.4-4.5,8.7-9.2,13.2-14.8a712.16,712.16,0,0,0,142.6-397.2l41.2-35a211.93,211.93,0,0,0,33.8-36.4l22-30-42.7,16.2a108.75,108.75,0,0,1-17.8,4.8l-49.7,8.9,17.8-13.8a199.87,199.87,0,0,0,62.3-80.9l4.9-11.6-11.3,5.6a536.33,536.33,0,0,1-55.3,23.5,552,552,0,0,1-57.6,17.2s-10-7.5-23.7-17.7a203.82,203.82,0,0,0-164.4-36.5l-1.4.3a124.63,124.63,0,0,0-43.8,18.4L880,326.9a197.49,197.49,0,0,0-86.4,184.7l2.3,21.7L761,526.9A690.64,690.64,0,0,1,397.5,336l-5.5-5.5-.3.9a261.18,261.18,0,0,0,59.4,257.7Zm980.7,92.7V1204a40.33,40.33,0,0,1-40.4,40.3h-3.1a40.27,40.27,0,0,1-40.3-40.1l-.7-205.6a626.92,626.92,0,0,1-44,66.1l-.4,167.2a40.29,40.29,0,0,1-40.3,40.2h-.2a40.29,40.29,0,0,1-40.3-40.5l.3-79q-21.3,19.2-44.3,36.4l-.4,301.7a40.35,40.35,0,0,1-40.3,40.2h-.1a40.39,40.39,0,0,1-40.4-40.3v-250q-21.45,11.4-43.7,21.2v60.6a40.42,40.42,0,0,1-40.4,40.4h-4.7a40.33,40.33,0,0,1-40.3-40.4v-30.3c-14,3.8-28.2,7.2-42.6,10.1v99.5a40.33,40.33,0,0,1-40.4,40.3h-2.3a40.31,40.31,0,0,1-40.3-40.3v-88.4c-13.9.9-28,1.4-42.1,1.4s-28.2-.5-42.1-1.4v197.6a40.31,40.31,0,0,1-40.3,40.3h-2.3a40.33,40.33,0,0,1-40.4-40.3V1302.3c-14.4-2.9-28.6-6.3-42.6-10.1v68.5a40.25,40.25,0,0,1-40.3,40.3h-4.7a40.39,40.39,0,0,1-40.4-40.3v-98.8q-22.35-9.75-43.7-21.2V1442a40.35,40.35,0,1,1-80.7.1V1189.5q-23-17.1-44.3-36.3v79.7a40.39,40.39,0,0,1-40.3,40.4h-.3a40.42,40.42,0,0,1-40.4-40.4V1065.5c-7.4-9.7-14.6-19.7-21.4-29.9-8.4-12.5-16.4-25.4-24-38.5v108.1a40.39,40.39,0,0,1-40.3,40.4h-2.8a40.42,40.42,0,0,1-40.4-40.4V682.8C168.4,333.9,451.3,51,800.2,51S1431.8,332.8,1431.8,681.8Z" transform="translate(-168.4 -51)"/><rect x="243.71" y="202.12" width="653.97" height="614.97"/><rect x="791.18" y="202.12" width="299.99" height="655.47"/><rect x="1028.17" y="299.61" width="128.99" height="103.49"/><rect x="167.21" y="260.61" width="304.48" height="488.39"/><rect x="107.22" y="749" width="731.96" height="191.08"/><rect x="167.21" y="833.59" width="623.97" height="177.51"/><path class="cls-1" d="M1273.92,405a559.14,559.14,0,0,0-201.19-205.29,547.13,547.13,0,0,0-555.5,0C345.17,302.7,240.54,488.42,242,688.2a556.44,556.44,0,0,0,105.48,331.43A541.22,541.22,0,0,0,620.16,1224.5a30.75,30.75,0,0,0,28.5-5.08,28.29,28.29,0,0,0,9.36-22V1091.17l-16.59,3a184,184,0,0,1-40,2.54,262.59,262.59,0,0,1-50.19-5.08,107.84,107.84,0,0,1-48.07-22,94.38,94.38,0,0,1-31.9-45.29l-7.23-16.93a184.92,184.92,0,0,0-23-36.83,89.6,89.6,0,0,0-31.48-27.94l-4.67-3.8a36.75,36.75,0,0,1-9.36-10.59A47,47,0,0,1,388.77,918a6.34,6.34,0,0,1,3.42-8.31l.41-.15a46.22,46.22,0,0,1,19.57-2.12L426.63,910a98.89,98.89,0,0,1,36.58,18.2,117.07,117.07,0,0,1,35.3,38.1,127.23,127.23,0,0,0,41.26,46.56,81.51,81.51,0,0,0,46.79,15.66,227.9,227.9,0,0,0,42.53-3.39,139.43,139.43,0,0,0,29.78-12.27,119.08,119.08,0,0,1,35.3-75.34,555.61,555.61,0,0,1-74-13.13,302.46,302.46,0,0,1-67.63-28.78,197.5,197.5,0,0,1-57.85-49.1,239.91,239.91,0,0,1-37.85-77.46,375.33,375.33,0,0,1-14.46-110,216,216,0,0,1,54.87-151.54,201.83,201.83,0,0,1,5.1-149.84,97.83,97.83,0,0,1,62.1,9.74,408.29,408.29,0,0,1,60.4,28.36c12.76,7.62,23,14.39,30.63,19.89a512.82,512.82,0,0,1,276.47,0l27.22-17.78a372.46,372.46,0,0,1,66.36-32.17,91.46,91.46,0,0,1,58.27-8,200.14,200.14,0,0,1,8.93,149.84,216.1,216.1,0,0,1,56.57,151.11,379.06,379.06,0,0,1-14,110.48,221.43,221.43,0,0,1-38.28,77,199.72,199.72,0,0,1-58.28,49.1A302.92,302.92,0,0,1,971.07,924a542.47,542.47,0,0,1-74,13.12,131.67,131.67,0,0,1,37.43,104.13v154.92a29.59,29.59,0,0,0,8.94,22,30.73,30.73,0,0,0,28.49,5.08,541.21,541.21,0,0,0,272.65-203.6,556.79,556.79,0,0,0,103.36-331.85A560.33,560.33,0,0,0,1273.92,405Z" transform="translate(-168.4 -51)"/></svg>