<?xml version="1.0" encoding="utf-8"?>
<!-- Generator: Adobe Illustrator 22.0.0, SVG Export Plug-In . SVG Version: 6.00 Build 0)  -->
<svg version="1.1" xmlns="http://www.w3.org/2000/svg" xmlns:xlink="http://www.w3.org/1999/xlink" x="0px" y="0px"
	 viewBox="0 0 1600 1600" style="enable-background:new 0 0 1600 1600;" xml:space="preserve">
<style type="text/css">
	.st0{fill:#FFFFFF;stroke:#000000;stroke-miterlimit:10;}
	.st1{fill:none;}
</style>
<g id="Capa_2">
	<ellipse class="st0" cx="794" cy="669" rx="546" ry="551"/>
</g>
<g id="Слой_1">
	<path id="XMLID_3_" d="M1430.3,681.6v521c0,22.2-18,40.2-40.3,40.2h-3.1c-22.1,0-40.1-17.9-40.2-40l-0.7-205.2
		c-13.3,22.9-27.9,45-43.9,65.9l-0.4,166.8c0,22.2-18,40.2-40.2,40.2h-0.2c-22.3,0-40.4-18.1-40.2-40.4l0.3-78.8
		c-14.2,12.7-28.9,24.9-44.2,36.3l-0.4,301c-0.1,22.2-18.1,40.2-40.2,40.2h-0.1c-22.2,0-40.3-18-40.3-40.2v-249.4
		c-14.2,7.6-28.8,14.6-43.6,21.1v60.4c0,22.2-18,40.3-40.3,40.3h-4.7c-22.3,0-40.2-18-40.2-40.3v-30.2c-14,3.8-28.2,7.2-42.5,10.1
		v99.2c0,22.2-18,40.2-40.3,40.2h-2.3c-22.2,0-40.2-18-40.2-40.2v-88.2c-13.9,0.9-27.9,1.4-42,1.4s-28.1-0.5-42-1.4v197.1
		c0,22.2-18,40.2-40.2,40.2h-2.3c-22.2,0-40.3-18-40.3-40.2v-208.1c-14.4-2.9-28.6-6.2-42.5-10.1v68.4c0,22.2-18,40.2-40.2,40.2
		h-4.7c-22.2,0-40.3-18-40.3-40.2v-98.6c-14.8-6.5-29.4-13.6-43.6-21.1v200.9c0,22.2-18,40.3-40.3,40.3c-11.1,0-21.2-4.5-28.5-11.8
		s-11.8-17.3-11.8-28.5V1188c-15.3-11.4-30-23.5-44.2-36.2v79.5c0,22.3-18,40.3-40.2,40.3h-0.3c-22.2,0-40.3-18-40.3-40.3v-167.1
		c-7.4-9.7-14.5-19.7-21.4-29.8c-8.4-12.5-16.4-25.3-23.9-38.4v107.9c0,22.2-18,40.3-40.2,40.3h-2.8c-22.2,0-40.3-18-40.3-40.3
		V682.6c0-348.1,282.2-630.3,630.3-630.3S1430.3,333.4,1430.3,681.6L1430.3,681.6z M1024.7,229.7c0.3-6-3.7-11.3-9.5-12.7
		c-25.7-6.4-56.8-10.5-96.1-10.5c-57.7,0-127.2,17.1-177,64.3c-57.7,52.4-81.3,137.7-81.3,215.1v12.4c0,6.9-5.6,12.5-12.5,12.5
		h-58.9c-6.9,0-12.5,5.6-12.5,12.5v121.9c0,6.9,5.6,12.5,12.5,12.5h58.9c6.9,0,12.5,5.6,12.5,12.5v469.4c0,6.9,5.6,12.5,12.5,12.5
		H849c6.9,0,12.5-5.6,12.5-12.5V670.1c0-6.9,5.6-12.5,12.5-12.5h102.2c6.9,0,12.5-5.6,12.5-12.5V523.2c0-6.9-5.6-12.5-12.5-12.5
		H872.7c-6.9,0-12.5-5.6-12.5-12.5V478c0-63,27.6-114.1,93.1-114.1c19.2,0,35.6,2.1,49.8,5.3c7.6,1.7,14.9-3.8,15.3-11.5
		C1020.4,315.1,1022.6,272.4,1024.7,229.7L1024.7,229.7z"/>
	<circle class="st1" cx="800" cy="679.3" r="630.3"/>
</g>
</svg>
